<?xml version="1.0" standalone="no"?>
<!DOCTYPE svg PUBLIC "-//W3C//DTD SVG 20010904//EN"
 "http://www.w3.org/TR/2001/REC-SVG-20010904/DTD/svg10.dtd">
<svg version="1.0" xmlns="http://www.w3.org/2000/svg"
 width="244.000000pt" height="115.000000pt" viewBox="0 0 244.000000 115.000000"
 preserveAspectRatio="xMidYMid meet">
<metadata>
Created by potrace 1.14, written by Peter Selinger 2001-2017
</metadata>
<g transform="translate(0.000000,115.000000) scale(0.100000,-0.100000)"
fill="#000000" stroke="none">
<path d="M2155 1118 c-16 -6 -73 -38 -125 -71 -187 -119 -328 -163 -490 -154
-117 7 -174 22 -354 93 -453 180 -761 163 -966 -53 -75 -78 -147 -210 -175
-318 -70 -266 25 -556 194 -594 58 -13 107 3 223 71 101 59 114 65 203 101 95
39 162 50 276 45 86 -3 116 -9 169 -32 206 -89 333 -117 525 -117 144 0 198 8
312 46 259 87 449 349 469 645 9 143 -42 283 -121 332 -33 20 -93 22 -140 6z"/>
</g>
</svg>
